<?xml version="1.0" encoding="UTF-8" standalone="no"?>
<!DOCTYPE svg PUBLIC "-//W3C//DTD SVG 1.1//EN" "http://www.w3.org/Graphics/SVG/1.1/DTD/svg11.dtd">
<svg width="100%" height="100%" viewBox="0 0 340 340" version="1.1" xmlns="http://www.w3.org/2000/svg" xmlns:xlink="http://www.w3.org/1999/xlink" xml:space="preserve" xmlns:serif="http://www.serif.com/" style="fill-rule:evenodd;clip-rule:evenodd;stroke-linejoin:round;stroke-miterlimit:2;">
    <g transform="matrix(11.724138,0,0,11.724138,0,0)">
        <path d="M13,2.4C13,2.619 13.181,2.8 13.4,2.8C13.619,2.8 13.8,2.619 13.8,2.4C13.8,2.181 13.619,2 13.4,2C13.181,2 13,2.181 13,2.4M18,2.4C18,2.619 18.181,2.8 18.4,2.8C18.619,2.8 18.8,2.619 18.8,2.4C18.8,2.181 18.619,2 18.4,2C18.181,2 18,2.181 18,2.4M13,3.4C13,3.619 13.181,3.8 13.4,3.8C13.619,3.8 13.8,3.619 13.8,3.4C13.8,3.181 13.619,3 13.4,3C13.181,3 13,3.181 13,3.4M16,3.4C16,3.619 16.181,3.8 16.4,3.8C16.619,3.8 16.8,3.619 16.8,3.4C16.8,3.181 16.619,3 16.4,3C16.181,3 16,3.181 16,3.4M17,3.4C17,3.619 17.181,3.8 17.4,3.8C17.619,3.8 17.8,3.619 17.8,3.4C17.8,3.181 17.619,3 17.4,3C17.181,3 17,3.181 17,3.4M18,3.4C18,3.619 18.181,3.8 18.4,3.8C18.619,3.8 18.8,3.619 18.8,3.4C18.8,3.181 18.619,3 18.4,3C18.181,3 18,3.181 18,3.4M10,4.4C10,4.619 10.181,4.8 10.4,4.8C10.619,4.8 10.8,4.619 10.8,4.4C10.8,4.181 10.619,4 10.4,4C10.181,4 10,4.181 10,4.4M13,4.4C13,4.619 13.181,4.8 13.4,4.8C13.619,4.8 13.8,4.619 13.8,4.4C13.8,4.181 13.619,4 13.4,4C13.181,4 13,4.181 13,4.4M17,4.4C17,4.619 17.181,4.8 17.4,4.8C17.619,4.8 17.8,4.619 17.8,4.4C17.8,4.181 17.619,4 17.4,4C17.181,4 17,4.181 17,4.4M10,5.4C10,5.619 10.181,5.8 10.4,5.8C10.619,5.8 10.8,5.619 10.8,5.4C10.8,5.181 10.619,5 10.4,5C10.181,5 10,5.181 10,5.4M11,5.4C11,5.619 11.181,5.8 11.4,5.8C11.619,5.8 11.8,5.619 11.8,5.4C11.8,5.181 11.619,5 11.4,5C11.181,5 11,5.181 11,5.4M15,5.4C15,5.619 15.181,5.8 15.4,5.8C15.619,5.8 15.8,5.619 15.8,5.4C15.8,5.181 15.619,5 15.4,5C15.181,5 15,5.181 15,5.4M16,5.4C16,5.619 16.181,5.8 16.4,5.8C16.619,5.8 16.8,5.619 16.8,5.4C16.8,5.181 16.619,5 16.4,5C16.181,5 16,5.181 16,5.4M17,5.4C17,5.619 17.181,5.8 17.4,5.8C17.619,5.8 17.8,5.619 17.8,5.4C17.8,5.181 17.619,5 17.4,5C17.181,5 17,5.181 17,5.4M10,6.4C10,6.619 10.181,6.8 10.4,6.8C10.619,6.8 10.8,6.619 10.8,6.4C10.8,6.181 10.619,6 10.4,6C10.181,6 10,6.181 10,6.4M13,6.4C13,6.619 13.181,6.8 13.4,6.8C13.619,6.8 13.8,6.619 13.8,6.4C13.8,6.181 13.619,6 13.4,6C13.181,6 13,6.181 13,6.4M15,6.4C15,6.619 15.181,6.8 15.4,6.8C15.619,6.8 15.8,6.619 15.8,6.4C15.8,6.181 15.619,6 15.4,6C15.181,6 15,6.181 15,6.4M16,6.4C16,6.619 16.181,6.8 16.4,6.8C16.619,6.8 16.8,6.619 16.8,6.4C16.8,6.181 16.619,6 16.4,6C16.181,6 16,6.181 16,6.4M18,6.4C18,6.619 18.181,6.8 18.4,6.8C18.619,6.8 18.8,6.619 18.8,6.4C18.8,6.181 18.619,6 18.4,6C18.181,6 18,6.181 18,6.4M10,7.4C10,7.619 10.181,7.8 10.4,7.8C10.619,7.8 10.8,7.619 10.8,7.4C10.8,7.181 10.619,7 10.4,7C10.181,7 10,7.181 10,7.4M17,7.4C17,7.619 17.181,7.8 17.4,7.8C17.619,7.8 17.8,7.619 17.8,7.4C17.8,7.181 17.619,7 17.4,7C17.181,7 17,7.181 17,7.4M18,7.4C18,7.619 18.181,7.8 18.4,7.8C18.619,7.8 18.8,7.619 18.8,7.4C18.8,7.181 18.619,7 18.4,7C18.181,7 18,7.181 18,7.4M10,8.4C10,8.619 10.181,8.8 10.4,8.8C10.619,8.8 10.8,8.619 10.8,8.4C10.8,8.181 10.619,8 10.4,8C10.181,8 10,8.181 10,8.4M12,8.4C12,8.619 12.181,8.8 12.4,8.8C12.619,8.8 12.8,8.619 12.8,8.4C12.8,8.181 12.619,8 12.4,8C12.181,8 12,8.181 12,8.4M14,8.4C14,8.619 14.181,8.8 14.4,8.8C14.619,8.8 14.8,8.619 14.8,8.4C14.8,8.181 14.619,8 14.4,8C14.181,8 14,8.181 14,8.4M16,8.4C16,8.619 16.181,8.8 16.4,8.8C16.619,8.8 16.8,8.619 16.8,8.4C16.8,8.181 16.619,8 16.4,8C16.181,8 16,8.181 16,8.4M18,8.4C18,8.619 18.181,8.8 18.4,8.8C18.619,8.8 18.8,8.619 18.8,8.4C18.8,8.181 18.619,8 18.4,8C18.181,8 18,8.181 18,8.4M10,9.4C10,9.619 10.181,9.8 10.4,9.8C10.619,9.8 10.8,9.619 10.8,9.4C10.8,9.181 10.619,9 10.4,9C10.181,9 10,9.181 10,9.4M14,9.4C14,9.619 14.181,9.8 14.4,9.8C14.619,9.8 14.8,9.619 14.8,9.4C14.8,9.181 14.619,9 14.4,9C14.181,9 14,9.181 14,9.4M16,9.4C16,9.619 16.181,9.8 16.4,9.8C16.619,9.8 16.8,9.619 16.8,9.4C16.8,9.181 16.619,9 16.4,9C16.181,9 16,9.181 16,9.4M17,9.4C17,9.619 17.181,9.8 17.4,9.8C17.619,9.8 17.8,9.619 17.8,9.4C17.8,9.181 17.619,9 17.4,9C17.181,9 17,9.181 17,9.4M18,9.4C18,9.619 18.181,9.8 18.4,9.8C18.619,9.8 18.8,9.619 18.8,9.4C18.8,9.181 18.619,9 18.4,9C18.181,9 18,9.181 18,9.4M2,10.4C2,10.619 2.181,10.8 2.4,10.8C2.619,10.8 2.8,10.619 2.8,10.4C2.8,10.181 2.619,10 2.4,10C2.181,10 2,10.181 2,10.4M4,10.4C4,10.619 4.181,10.8 4.4,10.8C4.619,10.8 4.8,10.619 4.8,10.4C4.8,10.181 4.619,10 4.4,10C4.181,10 4,10.181 4,10.4M5,10.4C5,10.619 5.181,10.8 5.4,10.8C5.619,10.8 5.8,10.619 5.8,10.4C5.8,10.181 5.619,10 5.4,10C5.181,10 5,10.181 5,10.4M6,10.4C6,10.619 6.181,10.8 6.4,10.8C6.619,10.8 6.8,10.619 6.8,10.4C6.8,10.181 6.619,10 6.4,10C6.181,10 6,10.181 6,10.4M7,10.4C7,10.619 7.181,10.8 7.4,10.8C7.619,10.8 7.8,10.619 7.8,10.4C7.8,10.181 7.619,10 7.4,10C7.181,10 7,10.181 7,10.4M8,10.4C8,10.619 8.181,10.8 8.4,10.8C8.619,10.8 8.8,10.619 8.8,10.4C8.8,10.181 8.619,10 8.4,10C8.181,10 8,10.181 8,10.4M13,10.4C13,10.619 13.181,10.8 13.4,10.8C13.619,10.8 13.8,10.619 13.8,10.4C13.8,10.181 13.619,10 13.4,10C13.181,10 13,10.181 13,10.4M14,10.4C14,10.619 14.181,10.8 14.4,10.8C14.619,10.8 14.8,10.619 14.8,10.4C14.8,10.181 14.619,10 14.4,10C14.181,10 14,10.181 14,10.4M17,10.4C17,10.619 17.181,10.8 17.4,10.8C17.619,10.8 17.8,10.619 17.8,10.4C17.8,10.181 17.619,10 17.4,10C17.181,10 17,10.181 17,10.4M20,10.4C20,10.619 20.181,10.8 20.4,10.8C20.619,10.8 20.8,10.619 20.8,10.4C20.8,10.181 20.619,10 20.4,10C20.181,10 20,10.181 20,10.4M21,10.4C21,10.619 21.181,10.8 21.4,10.8C21.619,10.8 21.8,10.619 21.8,10.4C21.8,10.181 21.619,10 21.4,10C21.181,10 21,10.181 21,10.4M22,10.4C22,10.619 22.181,10.8 22.4,10.8C22.619,10.8 22.8,10.619 22.8,10.4C22.8,10.181 22.619,10 22.4,10C22.181,10 22,10.181 22,10.4M23,10.4C23,10.619 23.181,10.8 23.4,10.8C23.619,10.8 23.8,10.619 23.8,10.4C23.8,10.181 23.619,10 23.4,10C23.181,10 23,10.181 23,10.4M24,10.4C24,10.619 24.181,10.8 24.4,10.8C24.619,10.8 24.8,10.619 24.8,10.4C24.8,10.181 24.619,10 24.4,10C24.181,10 24,10.181 24,10.4M3,11.4C3,11.619 3.181,11.8 3.4,11.8C3.619,11.8 3.8,11.619 3.8,11.4C3.8,11.181 3.619,11 3.4,11C3.181,11 3,11.181 3,11.4M4,11.4C4,11.619 4.181,11.8 4.4,11.8C4.619,11.8 4.8,11.619 4.8,11.4C4.8,11.181 4.619,11 4.4,11C4.181,11 4,11.181 4,11.4M5,11.4C5,11.619 5.181,11.8 5.4,11.8C5.619,11.8 5.8,11.619 5.8,11.4C5.8,11.181 5.619,11 5.4,11C5.181,11 5,11.181 5,11.4M6,11.4C6,11.619 6.181,11.8 6.4,11.8C6.619,11.8 6.8,11.619 6.8,11.4C6.8,11.181 6.619,11 6.4,11C6.181,11 6,11.181 6,11.4M11,11.4C11,11.619 11.181,11.8 11.4,11.8C11.619,11.8 11.8,11.619 11.8,11.4C11.8,11.181 11.619,11 11.4,11C11.181,11 11,11.181 11,11.4M15,11.4C15,11.619 15.181,11.8 15.4,11.8C15.619,11.8 15.8,11.619 15.8,11.4C15.8,11.181 15.619,11 15.4,11C15.181,11 15,11.181 15,11.4M18,11.4C18,11.619 18.181,11.8 18.4,11.8C18.619,11.8 18.8,11.619 18.8,11.4C18.8,11.181 18.619,11 18.4,11C18.181,11 18,11.181 18,11.4M21,11.4C21,11.619 21.181,11.8 21.4,11.8C21.619,11.8 21.8,11.619 21.8,11.4C21.8,11.181 21.619,11 21.4,11C21.181,11 21,11.181 21,11.4M25,11.4C25,11.619 25.181,11.8 25.4,11.8C25.619,11.8 25.8,11.619 25.8,11.4C25.8,11.181 25.619,11 25.4,11C25.181,11 25,11.181 25,11.4M2,12.4C2,12.619 2.181,12.8 2.4,12.8C2.619,12.8 2.8,12.619 2.8,12.4C2.8,12.181 2.619,12 2.4,12C2.181,12 2,12.181 2,12.4M3,12.4C3,12.619 3.181,12.8 3.4,12.8C3.619,12.8 3.8,12.619 3.8,12.4C3.8,12.181 3.619,12 3.4,12C3.181,12 3,12.181 3,12.4M4,12.4C4,12.619 4.181,12.8 4.4,12.8C4.619,12.8 4.8,12.619 4.8,12.4C4.8,12.181 4.619,12 4.4,12C4.181,12 4,12.181 4,12.4M7,12.4C7,12.619 7.181,12.8 7.4,12.8C7.619,12.8 7.8,12.619 7.8,12.4C7.8,12.181 7.619,12 7.4,12C7.181,12 7,12.181 7,12.4M8,12.4C8,12.619 8.181,12.8 8.4,12.8C8.619,12.8 8.8,12.619 8.8,12.4C8.8,12.181 8.619,12 8.4,12C8.181,12 8,12.181 8,12.4M9,12.4C9,12.619 9.181,12.8 9.4,12.8C9.619,12.8 9.8,12.619 9.8,12.4C9.8,12.181 9.619,12 9.4,12C9.181,12 9,12.181 9,12.4M12,12.4C12,12.619 12.181,12.8 12.4,12.8C12.619,12.8 12.8,12.619 12.8,12.4C12.8,12.181 12.619,12 12.4,12C12.181,12 12,12.181 12,12.4M13,12.4C13,12.619 13.181,12.8 13.4,12.8C13.619,12.8 13.8,12.619 13.8,12.4C13.8,12.181 13.619,12 13.4,12C13.181,12 13,12.181 13,12.4M14,12.4C14,12.619 14.181,12.8 14.4,12.8C14.619,12.8 14.8,12.619 14.8,12.4C14.8,12.181 14.619,12 14.4,12C14.181,12 14,12.181 14,12.4M15,12.4C15,12.619 15.181,12.8 15.4,12.8C15.619,12.8 15.8,12.619 15.8,12.4C15.8,12.181 15.619,12 15.4,12C15.181,12 15,12.181 15,12.4M16,12.4C16,12.619 16.181,12.8 16.4,12.8C16.619,12.8 16.8,12.619 16.8,12.4C16.8,12.181 16.619,12 16.4,12C16.181,12 16,12.181 16,12.4M17,12.4C17,12.619 17.181,12.8 17.4,12.8C17.619,12.8 17.8,12.619 17.8,12.4C17.8,12.181 17.619,12 17.4,12C17.181,12 17,12.181 17,12.4M19,12.4C19,12.619 19.181,12.8 19.4,12.8C19.619,12.8 19.8,12.619 19.8,12.4C19.8,12.181 19.619,12 19.4,12C19.181,12 19,12.181 19,12.4M20,12.4C20,12.619 20.181,12.8 20.4,12.8C20.619,12.8 20.8,12.619 20.8,12.4C20.8,12.181 20.619,12 20.4,12C20.181,12 20,12.181 20,12.4M21,12.4C21,12.619 21.181,12.8 21.4,12.8C21.619,12.8 21.8,12.619 21.8,12.4C21.8,12.181 21.619,12 21.4,12C21.181,12 21,12.181 21,12.4M22,12.4C22,12.619 22.181,12.8 22.4,12.8C22.619,12.8 22.8,12.619 22.8,12.4C22.8,12.181 22.619,12 22.4,12C22.181,12 22,12.181 22,12.4M23,12.4C23,12.619 23.181,12.8 23.4,12.8C23.619,12.8 23.8,12.619 23.8,12.4C23.8,12.181 23.619,12 23.4,12C23.181,12 23,12.181 23,12.4M25,12.4C25,12.619 25.181,12.8 25.4,12.8C25.619,12.8 25.8,12.619 25.8,12.4C25.8,12.181 25.619,12 25.4,12C25.181,12 25,12.181 25,12.4M26,12.4C26,12.619 26.181,12.8 26.4,12.8C26.619,12.8 26.8,12.619 26.8,12.4C26.8,12.181 26.619,12 26.4,12C26.181,12 26,12.181 26,12.4M4,13.4C4,13.619 4.181,13.8 4.4,13.8C4.619,13.8 4.8,13.619 4.8,13.4C4.8,13.181 4.619,13 4.4,13C4.181,13 4,13.181 4,13.4M6,13.4C6,13.619 6.181,13.8 6.4,13.8C6.619,13.8 6.8,13.619 6.8,13.4C6.8,13.181 6.619,13 6.4,13C6.181,13 6,13.181 6,13.4M7,13.4C7,13.619 7.181,13.8 7.4,13.8C7.619,13.8 7.8,13.619 7.8,13.4C7.8,13.181 7.619,13 7.4,13C7.181,13 7,13.181 7,13.4M9,13.4C9,13.619 9.181,13.8 9.4,13.8C9.619,13.8 9.8,13.619 9.8,13.4C9.8,13.181 9.619,13 9.4,13C9.181,13 9,13.181 9,13.4M14,13.4C14,13.619 14.181,13.8 14.4,13.8C14.619,13.8 14.8,13.619 14.8,13.4C14.8,13.181 14.619,13 14.4,13C14.181,13 14,13.181 14,13.4M15,13.4C15,13.619 15.181,13.8 15.4,13.8C15.619,13.8 15.8,13.619 15.8,13.4C15.8,13.181 15.619,13 15.4,13C15.181,13 15,13.181 15,13.4M19,13.4C19,13.619 19.181,13.8 19.4,13.8C19.619,13.8 19.8,13.619 19.8,13.4C19.8,13.181 19.619,13 19.4,13C19.181,13 19,13.181 19,13.4M20,13.4C20,13.619 20.181,13.8 20.4,13.8C20.619,13.8 20.8,13.619 20.8,13.4C20.8,13.181 20.619,13 20.4,13C20.181,13 20,13.181 20,13.4M21,13.4C21,13.619 21.181,13.8 21.4,13.8C21.619,13.8 21.8,13.619 21.8,13.4C21.8,13.181 21.619,13 21.4,13C21.181,13 21,13.181 21,13.4M22,13.4C22,13.619 22.181,13.8 22.4,13.8C22.619,13.8 22.8,13.619 22.8,13.4C22.8,13.181 22.619,13 22.4,13C22.181,13 22,13.181 22,13.4M3,14.4C3,14.619 3.181,14.8 3.4,14.8C3.619,14.8 3.8,14.619 3.8,14.4C3.8,14.181 3.619,14 3.4,14C3.181,14 3,14.181 3,14.4M4,14.4C4,14.619 4.181,14.8 4.4,14.8C4.619,14.8 4.8,14.619 4.8,14.4C4.8,14.181 4.619,14 4.4,14C4.181,14 4,14.181 4,14.4M5,14.4C5,14.619 5.181,14.8 5.4,14.8C5.619,14.8 5.8,14.619 5.8,14.4C5.8,14.181 5.619,14 5.4,14C5.181,14 5,14.181 5,14.4M7,14.4C7,14.619 7.181,14.8 7.4,14.8C7.619,14.8 7.8,14.619 7.8,14.4C7.8,14.181 7.619,14 7.4,14C7.181,14 7,14.181 7,14.4M8,14.4C8,14.619 8.181,14.8 8.4,14.8C8.619,14.8 8.8,14.619 8.8,14.4C8.8,14.181 8.619,14 8.4,14C8.181,14 8,14.181 8,14.4M10,14.4C10,14.619 10.181,14.8 10.4,14.8C10.619,14.8 10.8,14.619 10.8,14.4C10.8,14.181 10.619,14 10.4,14C10.181,14 10,14.181 10,14.4M13,14.4C13,14.619 13.181,14.8 13.4,14.8C13.619,14.8 13.8,14.619 13.8,14.4C13.8,14.181 13.619,14 13.4,14C13.181,14 13,14.181 13,14.4M14,14.4C14,14.619 14.181,14.8 14.4,14.8C14.619,14.8 14.8,14.619 14.8,14.4C14.8,14.181 14.619,14 14.4,14C14.181,14 14,14.181 14,14.4M16,14.4C16,14.619 16.181,14.8 16.4,14.8C16.619,14.8 16.8,14.619 16.8,14.4C16.8,14.181 16.619,14 16.4,14C16.181,14 16,14.181 16,14.4M17,14.4C17,14.619 17.181,14.8 17.4,14.8C17.619,14.8 17.8,14.619 17.8,14.4C17.8,14.181 17.619,14 17.4,14C17.181,14 17,14.181 17,14.4M18,14.4C18,14.619 18.181,14.8 18.4,14.8C18.619,14.8 18.8,14.619 18.8,14.4C18.8,14.181 18.619,14 18.4,14C18.181,14 18,14.181 18,14.4M19,14.4C19,14.619 19.181,14.8 19.4,14.8C19.619,14.8 19.8,14.619 19.8,14.4C19.8,14.181 19.619,14 19.4,14C19.181,14 19,14.181 19,14.4M20,14.4C20,14.619 20.181,14.8 20.4,14.8C20.619,14.8 20.8,14.619 20.8,14.4C20.8,14.181 20.619,14 20.4,14C20.181,14 20,14.181 20,14.4M22,14.4C22,14.619 22.181,14.8 22.4,14.8C22.619,14.8 22.8,14.619 22.8,14.4C22.8,14.181 22.619,14 22.4,14C22.181,14 22,14.181 22,14.4M23,14.4C23,14.619 23.181,14.8 23.4,14.8C23.619,14.8 23.8,14.619 23.8,14.4C23.8,14.181 23.619,14 23.4,14C23.181,14 23,14.181 23,14.4M24,14.4C24,14.619 24.181,14.8 24.4,14.8C24.619,14.8 24.8,14.619 24.8,14.4C24.8,14.181 24.619,14 24.4,14C24.181,14 24,14.181 24,14.4M26,14.4C26,14.619 26.181,14.8 26.4,14.8C26.619,14.8 26.8,14.619 26.8,14.4C26.8,14.181 26.619,14 26.4,14C26.181,14 26,14.181 26,14.4M2,15.4C2,15.619 2.181,15.8 2.4,15.8C2.619,15.8 2.8,15.619 2.8,15.4C2.8,15.181 2.619,15 2.4,15C2.181,15 2,15.181 2,15.4M3,15.4C3,15.619 3.181,15.8 3.4,15.8C3.619,15.8 3.8,15.619 3.8,15.4C3.8,15.181 3.619,15 3.4,15C3.181,15 3,15.181 3,15.4M5,15.4C5,15.619 5.181,15.8 5.4,15.8C5.619,15.8 5.8,15.619 5.8,15.4C5.8,15.181 5.619,15 5.4,15C5.181,15 5,15.181 5,15.4M10,15.4C10,15.619 10.181,15.8 10.4,15.8C10.619,15.8 10.8,15.619 10.8,15.4C10.8,15.181 10.619,15 10.4,15C10.181,15 10,15.181 10,15.4M11,15.4C11,15.619 11.181,15.8 11.4,15.8C11.619,15.8 11.8,15.619 11.8,15.4C11.8,15.181 11.619,15 11.4,15C11.181,15 11,15.181 11,15.4M12,15.4C12,15.619 12.181,15.8 12.4,15.8C12.619,15.8 12.8,15.619 12.8,15.4C12.8,15.181 12.619,15 12.4,15C12.181,15 12,15.181 12,15.4M18,15.4C18,15.619 18.181,15.8 18.4,15.8C18.619,15.8 18.8,15.619 18.8,15.4C18.8,15.181 18.619,15 18.4,15C18.181,15 18,15.181 18,15.4M24,15.4C24,15.619 24.181,15.8 24.4,15.8C24.619,15.8 24.8,15.619 24.8,15.4C24.8,15.181 24.619,15 24.4,15C24.181,15 24,15.181 24,15.4M25,15.4C25,15.619 25.181,15.8 25.4,15.8C25.619,15.8 25.8,15.619 25.8,15.4C25.8,15.181 25.619,15 25.4,15C25.181,15 25,15.181 25,15.4M2,16.4C2,16.619 2.181,16.8 2.4,16.8C2.619,16.8 2.8,16.619 2.8,16.4C2.8,16.181 2.619,16 2.4,16C2.181,16 2,16.181 2,16.4M4,16.4C4,16.619 4.181,16.8 4.4,16.8C4.619,16.8 4.8,16.619 4.8,16.4C4.8,16.181 4.619,16 4.4,16C4.181,16 4,16.181 4,16.4M6,16.4C6,16.619 6.181,16.8 6.4,16.8C6.619,16.8 6.8,16.619 6.8,16.4C6.8,16.181 6.619,16 6.4,16C6.181,16 6,16.181 6,16.4M8,16.4C8,16.619 8.181,16.8 8.4,16.8C8.619,16.8 8.8,16.619 8.8,16.4C8.8,16.181 8.619,16 8.4,16C8.181,16 8,16.181 8,16.4M12,16.4C12,16.619 12.181,16.8 12.4,16.8C12.619,16.8 12.8,16.619 12.8,16.4C12.8,16.181 12.619,16 12.4,16C12.181,16 12,16.181 12,16.4M13,16.4C13,16.619 13.181,16.8 13.4,16.8C13.619,16.8 13.8,16.619 13.8,16.4C13.8,16.181 13.619,16 13.4,16C13.181,16 13,16.181 13,16.4M14,16.4C14,16.619 14.181,16.8 14.4,16.8C14.619,16.8 14.8,16.619 14.8,16.4C14.8,16.181 14.619,16 14.4,16C14.181,16 14,16.181 14,16.4M17,16.4C17,16.619 17.181,16.8 17.4,16.8C17.619,16.8 17.8,16.619 17.8,16.4C17.8,16.181 17.619,16 17.4,16C17.181,16 17,16.181 17,16.4M19,16.4C19,16.619 19.181,16.8 19.4,16.8C19.619,16.8 19.8,16.619 19.8,16.4C19.8,16.181 19.619,16 19.4,16C19.181,16 19,16.181 19,16.4M21,16.4C21,16.619 21.181,16.8 21.4,16.8C21.619,16.8 21.8,16.619 21.8,16.4C21.8,16.181 21.619,16 21.4,16C21.181,16 21,16.181 21,16.4M22,16.4C22,16.619 22.181,16.8 22.4,16.8C22.619,16.8 22.8,16.619 22.8,16.4C22.8,16.181 22.619,16 22.4,16C22.181,16 22,16.181 22,16.4M24,16.4C24,16.619 24.181,16.8 24.4,16.8C24.619,16.8 24.8,16.619 24.8,16.4C24.8,16.181 24.619,16 24.4,16C24.181,16 24,16.181 24,16.4M25,16.4C25,16.619 25.181,16.8 25.4,16.8C25.619,16.8 25.8,16.619 25.8,16.4C25.8,16.181 25.619,16 25.4,16C25.181,16 25,16.181 25,16.4M26,16.4C26,16.619 26.181,16.8 26.4,16.8C26.619,16.8 26.8,16.619 26.8,16.4C26.8,16.181 26.619,16 26.4,16C26.181,16 26,16.181 26,16.4M2,17.4C2,17.619 2.181,17.8 2.4,17.8C2.619,17.8 2.8,17.619 2.8,17.4C2.8,17.181 2.619,17 2.4,17C2.181,17 2,17.181 2,17.4M6,17.4C6,17.619 6.181,17.8 6.4,17.8C6.619,17.8 6.8,17.619 6.8,17.4C6.8,17.181 6.619,17 6.4,17C6.181,17 6,17.181 6,17.4M10,17.4C10,17.619 10.181,17.8 10.4,17.8C10.619,17.8 10.8,17.619 10.8,17.4C10.8,17.181 10.619,17 10.4,17C10.181,17 10,17.181 10,17.4M12,17.4C12,17.619 12.181,17.8 12.4,17.8C12.619,17.8 12.8,17.619 12.8,17.4C12.8,17.181 12.619,17 12.4,17C12.181,17 12,17.181 12,17.4M13,17.4C13,17.619 13.181,17.8 13.4,17.8C13.619,17.8 13.8,17.619 13.8,17.4C13.8,17.181 13.619,17 13.4,17C13.181,17 13,17.181 13,17.4M16,17.4C16,17.619 16.181,17.8 16.4,17.8C16.619,17.8 16.8,17.619 16.8,17.4C16.8,17.181 16.619,17 16.4,17C16.181,17 16,17.181 16,17.4M18,17.4C18,17.619 18.181,17.8 18.4,17.8C18.619,17.8 18.8,17.619 18.8,17.4C18.8,17.181 18.619,17 18.4,17C18.181,17 18,17.181 18,17.4M21,17.4C21,17.619 21.181,17.8 21.4,17.8C21.619,17.8 21.8,17.619 21.8,17.4C21.8,17.181 21.619,17 21.4,17C21.181,17 21,17.181 21,17.4M23,17.4C23,17.619 23.181,17.8 23.4,17.8C23.619,17.8 23.8,17.619 23.8,17.4C23.8,17.181 23.619,17 23.4,17C23.181,17 23,17.181 23,17.4M25,17.4C25,17.619 25.181,17.8 25.4,17.8C25.619,17.8 25.8,17.619 25.8,17.4C25.8,17.181 25.619,17 25.4,17C25.181,17 25,17.181 25,17.4M26,17.4C26,17.619 26.181,17.8 26.4,17.8C26.619,17.8 26.8,17.619 26.8,17.4C26.8,17.181 26.619,17 26.4,17C26.181,17 26,17.181 26,17.4M2,18.4C2,18.619 2.181,18.8 2.4,18.8C2.619,18.8 2.8,18.619 2.8,18.4C2.8,18.181 2.619,18 2.4,18C2.181,18 2,18.181 2,18.4M4,18.4C4,18.619 4.181,18.8 4.4,18.8C4.619,18.8 4.8,18.619 4.8,18.4C4.8,18.181 4.619,18 4.4,18C4.181,18 4,18.181 4,18.4M6,18.4C6,18.619 6.181,18.8 6.4,18.8C6.619,18.8 6.8,18.619 6.8,18.4C6.8,18.181 6.619,18 6.4,18C6.181,18 6,18.181 6,18.4M7,18.4C7,18.619 7.181,18.8 7.4,18.8C7.619,18.8 7.8,18.619 7.8,18.4C7.8,18.181 7.619,18 7.4,18C7.181,18 7,18.181 7,18.4M8,18.4C8,18.619 8.181,18.8 8.4,18.8C8.619,18.8 8.8,18.619 8.8,18.4C8.8,18.181 8.619,18 8.4,18C8.181,18 8,18.181 8,18.4M11,18.4C11,18.619 11.181,18.8 11.4,18.8C11.619,18.8 11.8,18.619 11.8,18.4C11.8,18.181 11.619,18 11.4,18C11.181,18 11,18.181 11,18.4M13,18.4C13,18.619 13.181,18.8 13.4,18.8C13.619,18.8 13.8,18.619 13.8,18.4C13.8,18.181 13.619,18 13.4,18C13.181,18 13,18.181 13,18.4M18,18.4C18,18.619 18.181,18.8 18.4,18.8C18.619,18.8 18.8,18.619 18.8,18.4C18.8,18.181 18.619,18 18.4,18C18.181,18 18,18.181 18,18.4M19,18.4C19,18.619 19.181,18.8 19.4,18.8C19.619,18.8 19.8,18.619 19.8,18.4C19.8,18.181 19.619,18 19.4,18C19.181,18 19,18.181 19,18.4M20,18.4C20,18.619 20.181,18.8 20.4,18.8C20.619,18.8 20.8,18.619 20.8,18.4C20.8,18.181 20.619,18 20.4,18C20.181,18 20,18.181 20,18.4M21,18.4C21,18.619 21.181,18.8 21.4,18.8C21.619,18.8 21.8,18.619 21.8,18.4C21.8,18.181 21.619,18 21.4,18C21.181,18 21,18.181 21,18.4M22,18.4C22,18.619 22.181,18.8 22.4,18.8C22.619,18.8 22.8,18.619 22.8,18.4C22.8,18.181 22.619,18 22.4,18C22.181,18 22,18.181 22,18.4M23,18.4C23,18.619 23.181,18.8 23.4,18.8C23.619,18.8 23.8,18.619 23.8,18.4C23.8,18.181 23.619,18 23.4,18C23.181,18 23,18.181 23,18.4M24,18.4C24,18.619 24.181,18.8 24.4,18.8C24.619,18.8 24.8,18.619 24.8,18.4C24.8,18.181 24.619,18 24.4,18C24.181,18 24,18.181 24,18.4M26,18.4C26,18.619 26.181,18.8 26.4,18.8C26.619,18.8 26.8,18.619 26.8,18.4C26.8,18.181 26.619,18 26.4,18C26.181,18 26,18.181 26,18.4M10,19.4C10,19.619 10.181,19.8 10.4,19.8C10.619,19.8 10.8,19.619 10.8,19.4C10.8,19.181 10.619,19 10.4,19C10.181,19 10,19.181 10,19.4M12,19.4C12,19.619 12.181,19.8 12.4,19.8C12.619,19.8 12.8,19.619 12.8,19.4C12.8,19.181 12.619,19 12.4,19C12.181,19 12,19.181 12,19.4M14,19.4C14,19.619 14.181,19.8 14.4,19.8C14.619,19.8 14.8,19.619 14.8,19.4C14.8,19.181 14.619,19 14.4,19C14.181,19 14,19.181 14,19.4M15,19.4C15,19.619 15.181,19.8 15.4,19.8C15.619,19.8 15.8,19.619 15.8,19.4C15.8,19.181 15.619,19 15.4,19C15.181,19 15,19.181 15,19.4M16,19.4C16,19.619 16.181,19.8 16.4,19.8C16.619,19.8 16.8,19.619 16.8,19.4C16.8,19.181 16.619,19 16.4,19C16.181,19 16,19.181 16,19.4M17,19.4C17,19.619 17.181,19.8 17.4,19.8C17.619,19.8 17.8,19.619 17.8,19.4C17.8,19.181 17.619,19 17.4,19C17.181,19 17,19.181 17,19.4M18,19.4C18,19.619 18.181,19.8 18.4,19.8C18.619,19.8 18.8,19.619 18.8,19.4C18.8,19.181 18.619,19 18.4,19C18.181,19 18,19.181 18,19.4M22,19.4C22,19.619 22.181,19.8 22.4,19.8C22.619,19.8 22.8,19.619 22.8,19.4C22.8,19.181 22.619,19 22.4,19C22.181,19 22,19.181 22,19.4M24,19.4C24,19.619 24.181,19.8 24.4,19.8C24.619,19.8 24.8,19.619 24.8,19.4C24.8,19.181 24.619,19 24.4,19C24.181,19 24,19.181 24,19.4M25,19.4C25,19.619 25.181,19.8 25.4,19.8C25.619,19.8 25.8,19.619 25.8,19.4C25.8,19.181 25.619,19 25.4,19C25.181,19 25,19.181 25,19.4M11,20.4C11,20.619 11.181,20.8 11.4,20.8C11.619,20.8 11.8,20.619 11.8,20.4C11.8,20.181 11.619,20 11.4,20C11.181,20 11,20.181 11,20.4M15,20.4C15,20.619 15.181,20.8 15.4,20.8C15.619,20.8 15.8,20.619 15.8,20.4C15.8,20.181 15.619,20 15.4,20C15.181,20 15,20.181 15,20.4M16,20.4C16,20.619 16.181,20.8 16.4,20.8C16.619,20.8 16.8,20.619 16.8,20.4C16.8,20.181 16.619,20 16.4,20C16.181,20 16,20.181 16,20.4M18,20.4C18,20.619 18.181,20.8 18.4,20.8C18.619,20.8 18.8,20.619 18.8,20.4C18.8,20.181 18.619,20 18.4,20C18.181,20 18,20.181 18,20.4M20,20.4C20,20.619 20.181,20.8 20.4,20.8C20.619,20.8 20.8,20.619 20.8,20.4C20.8,20.181 20.619,20 20.4,20C20.181,20 20,20.181 20,20.4M22,20.4C22,20.619 22.181,20.8 22.4,20.8C22.619,20.8 22.8,20.619 22.8,20.4C22.8,20.181 22.619,20 22.4,20C22.181,20 22,20.181 22,20.4M23,20.4C23,20.619 23.181,20.8 23.4,20.8C23.619,20.8 23.8,20.619 23.8,20.4C23.8,20.181 23.619,20 23.4,20C23.181,20 23,20.181 23,20.4M24,20.4C24,20.619 24.181,20.8 24.4,20.8C24.619,20.8 24.8,20.619 24.8,20.4C24.8,20.181 24.619,20 24.4,20C24.181,20 24,20.181 24,20.4M25,20.4C25,20.619 25.181,20.8 25.4,20.8C25.619,20.8 25.8,20.619 25.8,20.4C25.8,20.181 25.619,20 25.4,20C25.181,20 25,20.181 25,20.4M26,20.4C26,20.619 26.181,20.8 26.4,20.8C26.619,20.8 26.8,20.619 26.8,20.4C26.8,20.181 26.619,20 26.4,20C26.181,20 26,20.181 26,20.4M10,21.4C10,21.619 10.181,21.8 10.4,21.8C10.619,21.8 10.8,21.619 10.8,21.4C10.8,21.181 10.619,21 10.4,21C10.181,21 10,21.181 10,21.4M11,21.4C11,21.619 11.181,21.8 11.4,21.8C11.619,21.8 11.8,21.619 11.8,21.4C11.8,21.181 11.619,21 11.4,21C11.181,21 11,21.181 11,21.4M12,21.4C12,21.619 12.181,21.8 12.4,21.8C12.619,21.8 12.8,21.619 12.8,21.4C12.8,21.181 12.619,21 12.4,21C12.181,21 12,21.181 12,21.4M14,21.4C14,21.619 14.181,21.8 14.4,21.8C14.619,21.8 14.8,21.619 14.8,21.4C14.8,21.181 14.619,21 14.4,21C14.181,21 14,21.181 14,21.4M15,21.4C15,21.619 15.181,21.8 15.4,21.8C15.619,21.8 15.8,21.619 15.8,21.4C15.8,21.181 15.619,21 15.4,21C15.181,21 15,21.181 15,21.4M18,21.4C18,21.619 18.181,21.8 18.4,21.8C18.619,21.8 18.8,21.619 18.8,21.4C18.8,21.181 18.619,21 18.4,21C18.181,21 18,21.181 18,21.4M22,21.4C22,21.619 22.181,21.8 22.4,21.8C22.619,21.8 22.8,21.619 22.8,21.4C22.8,21.181 22.619,21 22.4,21C22.181,21 22,21.181 22,21.4M25,21.4C25,21.619 25.181,21.8 25.4,21.8C25.619,21.8 25.8,21.619 25.8,21.4C25.8,21.181 25.619,21 25.4,21C25.181,21 25,21.181 25,21.4M10,22.4C10,22.619 10.181,22.8 10.4,22.8C10.619,22.8 10.8,22.619 10.8,22.4C10.8,22.181 10.619,22 10.4,22C10.181,22 10,22.181 10,22.4M14,22.4C14,22.619 14.181,22.8 14.4,22.8C14.619,22.8 14.8,22.619 14.8,22.4C14.8,22.181 14.619,22 14.4,22C14.181,22 14,22.181 14,22.4M16,22.4C16,22.619 16.181,22.8 16.4,22.8C16.619,22.8 16.8,22.619 16.8,22.4C16.8,22.181 16.619,22 16.4,22C16.181,22 16,22.181 16,22.4M17,22.4C17,22.619 17.181,22.8 17.4,22.8C17.619,22.8 17.8,22.619 17.8,22.4C17.8,22.181 17.619,22 17.4,22C17.181,22 17,22.181 17,22.4M18,22.4C18,22.619 18.181,22.8 18.4,22.8C18.619,22.8 18.8,22.619 18.8,22.4C18.8,22.181 18.619,22 18.4,22C18.181,22 18,22.181 18,22.4M19,22.4C19,22.619 19.181,22.8 19.4,22.8C19.619,22.8 19.8,22.619 19.8,22.4C19.8,22.181 19.619,22 19.4,22C19.181,22 19,22.181 19,22.4M20,22.4C20,22.619 20.181,22.8 20.4,22.8C20.619,22.8 20.8,22.619 20.8,22.4C20.8,22.181 20.619,22 20.4,22C20.181,22 20,22.181 20,22.4M21,22.4C21,22.619 21.181,22.8 21.4,22.8C21.619,22.8 21.8,22.619 21.8,22.4C21.8,22.181 21.619,22 21.4,22C21.181,22 21,22.181 21,22.4M22,22.4C22,22.619 22.181,22.8 22.4,22.8C22.619,22.8 22.8,22.619 22.8,22.4C22.8,22.181 22.619,22 22.4,22C22.181,22 22,22.181 22,22.4M23,22.4C23,22.619 23.181,22.8 23.4,22.8C23.619,22.8 23.8,22.619 23.8,22.4C23.8,22.181 23.619,22 23.4,22C23.181,22 23,22.181 23,22.4M24,22.4C24,22.619 24.181,22.8 24.4,22.8C24.619,22.8 24.8,22.619 24.8,22.4C24.8,22.181 24.619,22 24.4,22C24.181,22 24,22.181 24,22.4M26,22.4C26,22.619 26.181,22.8 26.4,22.8C26.619,22.8 26.8,22.619 26.8,22.4C26.8,22.181 26.619,22 26.4,22C26.181,22 26,22.181 26,22.4M10,23.4C10,23.619 10.181,23.8 10.4,23.8C10.619,23.8 10.8,23.619 10.8,23.4C10.8,23.181 10.619,23 10.4,23C10.181,23 10,23.181 10,23.4M20,23.4C20,23.619 20.181,23.8 20.4,23.8C20.619,23.8 20.8,23.619 20.8,23.4C20.8,23.181 20.619,23 20.4,23C20.181,23 20,23.181 20,23.4M22,23.4C22,23.619 22.181,23.8 22.4,23.8C22.619,23.8 22.8,23.619 22.8,23.4C22.8,23.181 22.619,23 22.4,23C22.181,23 22,23.181 22,23.4M24,23.4C24,23.619 24.181,23.8 24.4,23.8C24.619,23.8 24.8,23.619 24.8,23.4C24.8,23.181 24.619,23 24.4,23C24.181,23 24,23.181 24,23.4M25,23.4C25,23.619 25.181,23.8 25.4,23.8C25.619,23.8 25.8,23.619 25.8,23.4C25.8,23.181 25.619,23 25.4,23C25.181,23 25,23.181 25,23.4M26,23.4C26,23.619 26.181,23.8 26.4,23.8C26.619,23.8 26.8,23.619 26.8,23.4C26.8,23.181 26.619,23 26.4,23C26.181,23 26,23.181 26,23.4M10,24.4C10,24.619 10.181,24.8 10.4,24.8C10.619,24.8 10.8,24.619 10.8,24.4C10.8,24.181 10.619,24 10.4,24C10.181,24 10,24.181 10,24.4M13,24.4C13,24.619 13.181,24.8 13.4,24.8C13.619,24.8 13.8,24.619 13.8,24.4C13.8,24.181 13.619,24 13.4,24C13.181,24 13,24.181 13,24.4M14,24.4C14,24.619 14.181,24.8 14.4,24.8C14.619,24.8 14.8,24.619 14.8,24.4C14.8,24.181 14.619,24 14.4,24C14.181,24 14,24.181 14,24.4M21,24.4C21,24.619 21.181,24.8 21.4,24.8C21.619,24.8 21.8,24.619 21.8,24.4C21.8,24.181 21.619,24 21.4,24C21.181,24 21,24.181 21,24.4M24,24.4C24,24.619 24.181,24.8 24.4,24.8C24.619,24.8 24.8,24.619 24.8,24.4C24.8,24.181 24.619,24 24.4,24C24.181,24 24,24.181 24,24.4M26,24.4C26,24.619 26.181,24.8 26.4,24.8C26.619,24.8 26.8,24.619 26.8,24.4C26.8,24.181 26.619,24 26.4,24C26.181,24 26,24.181 26,24.4M11,25.4C11,25.619 11.181,25.8 11.4,25.8C11.619,25.8 11.8,25.619 11.8,25.4C11.8,25.181 11.619,25 11.4,25C11.181,25 11,25.181 11,25.4M13,25.4C13,25.619 13.181,25.8 13.4,25.8C13.619,25.8 13.8,25.619 13.8,25.4C13.8,25.181 13.619,25 13.4,25C13.181,25 13,25.181 13,25.4M16,25.4C16,25.619 16.181,25.8 16.4,25.8C16.619,25.8 16.8,25.619 16.8,25.4C16.8,25.181 16.619,25 16.4,25C16.181,25 16,25.181 16,25.4M18,25.4C18,25.619 18.181,25.8 18.4,25.8C18.619,25.8 18.8,25.619 18.8,25.4C18.8,25.181 18.619,25 18.4,25C18.181,25 18,25.181 18,25.4M19,25.4C19,25.619 19.181,25.8 19.4,25.8C19.619,25.8 19.8,25.619 19.8,25.4C19.8,25.181 19.619,25 19.4,25C19.181,25 19,25.181 19,25.4M22,25.4C22,25.619 22.181,25.8 22.4,25.8C22.619,25.8 22.8,25.619 22.8,25.4C22.8,25.181 22.619,25 22.4,25C22.181,25 22,25.181 22,25.4M26,25.4C26,25.619 26.181,25.8 26.4,25.8C26.619,25.8 26.8,25.619 26.8,25.4C26.8,25.181 26.619,25 26.4,25C26.181,25 26,25.181 26,25.4M10,26.4C10,26.619 10.181,26.8 10.4,26.8C10.619,26.8 10.8,26.619 10.8,26.4C10.8,26.181 10.619,26 10.4,26C10.181,26 10,26.181 10,26.4M12,26.4C12,26.619 12.181,26.8 12.4,26.8C12.619,26.8 12.8,26.619 12.8,26.4C12.8,26.181 12.619,26 12.4,26C12.181,26 12,26.181 12,26.4M13,26.4C13,26.619 13.181,26.8 13.4,26.8C13.619,26.8 13.8,26.619 13.8,26.4C13.8,26.181 13.619,26 13.4,26C13.181,26 13,26.181 13,26.4M19,26.4C19,26.619 19.181,26.8 19.4,26.8C19.619,26.8 19.8,26.619 19.8,26.4C19.8,26.181 19.619,26 19.4,26C19.181,26 19,26.181 19,26.4M20,26.4C20,26.619 20.181,26.8 20.4,26.8C20.619,26.8 20.8,26.619 20.8,26.4C20.8,26.181 20.619,26 20.4,26C20.181,26 20,26.181 20,26.4M24,26.4C24,26.619 24.181,26.8 24.4,26.8C24.619,26.8 24.8,26.619 24.8,26.4C24.8,26.181 24.619,26 24.4,26C24.181,26 24,26.181 24,26.4M25,26.4C25,26.619 25.181,26.8 25.4,26.8C25.619,26.8 25.8,26.619 25.8,26.4C25.8,26.181 25.619,26 25.4,26C25.181,26 25,26.181 25,26.4M26,26.4C26,26.619 26.181,26.8 26.4,26.8C26.619,26.8 26.8,26.619 26.8,26.4C26.8,26.181 26.619,26 26.4,26C26.181,26 26,26.181 26,26.4" style="fill:rgb(223,255,230);fill-rule:nonzero;"/>
    </g>
    <g transform="matrix(11.724138,0,0,11.724138,0,0)">
        <path d="M4.25,9L6.8,9C8,9 9,8 9,6.8L9,4.25C9,3 8,2 6.75,2L4.2,2C3,2 2,3 2,4.2L2,6.75C2,8 3,9 4.25,9ZM8,4.4L8,6.6C8,7.35 7.35,8 6.6,8L4.4,8C3.6,8 3,7.4 3,6.6L3,4.4C3,3.65 3.65,3 4.4,3L6.6,3C7.4,3 8,3.6 8,4.4Z" style="fill:rgb(223,255,230);fill-rule:nonzero;"/>
    </g>
    <g transform="matrix(11.724138,0,0,11.724138,0,0)">
        <path d="M7.063,4.868L7.063,6.246C7.063,6.654 6.654,7.063 6.195,7.063L4.868,7.063C4.358,7.063 4,6.705 4,6.195L4,4.868C4,4.408 4.408,4 4.868,4L6.246,4C6.705,4 7.063,4.357 7.063,4.868Z" style="fill:rgb(223,255,230);fill-rule:nonzero;"/>
    </g>
    <g transform="matrix(11.724138,0,0,11.724138,0,0)">
        <path d="M4.25,27L6.8,27C8,27 9,26 9,24.8L9,22.25C9,21 8,20 6.75,20L4.2,20C3,20 2,21 2,22.2L2,24.75C2,26 3,27 4.25,27ZM8,22.4L8,24.6C8,25.35 7.35,26 6.6,26L4.4,26C3.6,26 3,25.4 3,24.6L3,22.4C3,21.65 3.65,21 4.4,21L6.6,21C7.4,21 8,21.6 8,22.4Z" style="fill:rgb(223,255,230);fill-rule:nonzero;"/>
    </g>
    <g transform="matrix(11.724138,0,0,11.724138,0,0)">
        <path d="M7.063,22.868L7.063,24.246C7.063,24.654 6.654,25.063 6.195,25.063L4.868,25.063C4.358,25.063 4,24.705 4,24.195L4,22.868C4,22.408 4.408,22 4.868,22L6.246,22C6.705,22 7.063,22.357 7.063,22.868Z" style="fill:rgb(223,255,230);fill-rule:nonzero;"/>
    </g>
    <g transform="matrix(11.724138,0,0,11.724138,0,0)">
        <path d="M22.25,9L24.8,9C26,9 27,8 27,6.8L27,4.25C27,3 26,2 24.75,2L22.2,2C21,2 20,3 20,4.2L20,6.75C20,8 21,9 22.25,9ZM26,4.4L26,6.6C26,7.35 25.35,8 24.6,8L22.4,8C21.6,8 21,7.4 21,6.6L21,4.4C21,3.65 21.65,3 22.4,3L24.6,3C25.4,3 26,3.6 26,4.4Z" style="fill:rgb(223,255,230);fill-rule:nonzero;"/>
    </g>
    <g transform="matrix(11.724138,0,0,11.724138,0,0)">
        <path d="M25.063,4.868L25.063,6.246C25.063,6.654 24.654,7.063 24.195,7.063L22.868,7.063C22.358,7.063 22,6.705 22,6.195L22,4.868C22,4.408 22.408,4 22.868,4L24.246,4C24.705,4 25.063,4.357 25.063,4.868Z" style="fill:rgb(223,255,230);fill-rule:nonzero;"/>
    </g>
</svg>
